<svg width="61" height="60" viewBox="0 0 61 60" fill="none" xmlns="http://www.w3.org/2000/svg">
<g clip-path="url(#clip0_339_481)">
<path d="M42.0633 21.1891H39.4015C39.239 20.6732 39.0322 20.1738 38.7828 19.6946L40.6648 17.8125C40.9 17.5773 41.0295 17.2645 41.0295 16.9318C41.0295 16.599 40.9 16.2862 40.6648 16.051L38.4498 13.8359C37.9642 13.3507 37.1741 13.3504 36.6884 13.8361L34.8062 15.7182C34.3271 15.4687 33.8275 15.2619 33.3117 15.0994V12.4375C33.3116 11.7508 32.7529 11.192 32.066 11.192H28.9335C28.2468 11.192 27.688 11.7507 27.688 12.4375V15.0994C27.1722 15.262 26.6727 15.4687 26.1934 15.7182L24.3112 13.8359C23.8256 13.3505 23.0355 13.3507 22.5499 13.8361L20.335 16.0509C20.0997 16.2861 19.9701 16.5989 19.9701 16.9317C19.9701 17.2644 20.0997 17.5771 20.3349 17.8123L22.217 19.6945C21.9676 20.1737 21.7607 20.6732 21.5983 21.189H18.9364C18.2497 21.189 17.6909 21.7477 17.6909 22.4346V25.5671C17.6909 26.2538 18.2497 26.8125 18.9364 26.8125H21.5983C21.7608 27.3283 21.9676 27.828 22.217 28.307L20.3349 30.1892C19.8493 30.6748 19.8493 31.465 20.3349 31.9506L22.5499 34.1656C23.0355 34.6513 23.8258 34.6512 24.3113 34.1656L26.1934 32.2834C26.6726 32.5329 27.1723 32.7398 27.688 32.9022V35.5641C27.688 36.2508 28.2468 36.8096 28.9335 36.8096H32.066C32.7528 36.8096 33.3116 36.2508 33.3116 35.5641V32.9022C33.8273 32.7398 34.3269 32.5329 34.8061 32.2834L36.6883 34.1656C37.174 34.6513 37.9642 34.6512 38.4498 34.1656L40.6647 31.9506C40.8999 31.7154 41.0293 31.4027 41.0293 31.07C41.0293 30.7373 40.8999 30.4245 40.6647 30.1892L38.7825 28.307C39.032 27.8279 39.2388 27.3283 39.4013 26.8125H42.0632C42.7499 26.8125 43.3088 26.2538 43.3088 25.5671V22.4346C43.3089 21.7478 42.75 21.1891 42.0633 21.1891ZM41.5512 25.0547H38.7318C38.3235 25.0547 37.969 25.3359 37.876 25.7335C37.6886 26.5345 37.374 27.2942 36.941 27.9913C36.7255 28.3382 36.7774 28.7877 37.0661 29.0766L39.0595 31.0701L37.5692 32.5605L35.5757 30.567C35.2869 30.2782 34.8374 30.2262 34.4903 30.4418C33.793 30.8748 33.0333 31.1894 32.2326 31.3769C31.835 31.4698 31.5538 31.8243 31.5538 32.2327V35.0522H29.4462V32.2327C29.4462 31.8244 29.1651 31.4699 28.7675 31.3769C27.9667 31.1896 27.207 30.8751 26.5096 30.4418C26.1629 30.2267 25.7132 30.2782 25.4243 30.567L23.4309 32.5605L21.9405 31.0701L23.934 29.0766C24.2227 28.7879 24.2745 28.3383 24.0591 27.9913C23.6261 27.2941 23.3116 26.5343 23.1242 25.7335C23.0313 25.3359 22.6766 25.0547 22.2684 25.0547H19.449V22.9471H22.2684C22.6766 22.9471 23.0311 22.666 23.1242 22.2684C23.3116 21.4675 23.6261 20.7078 24.0591 20.0105C24.2745 19.6637 24.2227 19.2141 23.934 18.9253L21.9405 16.9318L23.4309 15.4414L25.4243 17.4349C25.7129 17.7236 26.1626 17.7755 26.5096 17.56C27.2068 17.127 27.9665 16.8125 28.7675 16.6251C29.1651 16.5322 29.4462 16.1777 29.4462 15.7693V12.9498H31.5538V15.7693C31.5538 16.1776 31.835 16.5321 32.2326 16.6251C33.0334 16.8125 33.793 17.127 34.4904 17.56C34.8371 17.7753 35.2868 17.7234 35.5757 17.4349L37.5692 15.4414L39.0595 16.9318L37.0661 18.9253C36.7773 19.214 36.7255 19.6635 36.941 20.0105C37.3739 20.7076 37.6885 21.4673 37.876 22.2684C37.969 22.666 38.3234 22.9471 38.7318 22.9471H41.5512V25.0547Z" fill="#2CBFA3"/>
<path d="M30.5001 19.2923C27.9037 19.2923 25.7915 21.4046 25.7915 24.0009C25.7915 26.5972 27.9038 28.7095 30.5001 28.7095C33.0964 28.7095 35.2087 26.5972 35.2087 24.0009C35.2087 21.4046 33.0965 19.2923 30.5001 19.2923ZM30.5001 26.9517C28.8731 26.9517 27.5493 25.6279 27.5493 24.0009C27.5493 22.3739 28.8731 21.0501 30.5001 21.0501C32.1271 21.0501 33.4509 22.3739 33.4509 24.0009C33.4509 25.6279 32.1271 26.9517 30.5001 26.9517Z" fill="#2CBFA3"/>
<path d="M10.2938 23.122H7.37793C6.89254 23.122 6.49902 23.5155 6.49902 24.0009C6.49902 24.4863 6.89254 24.8798 7.37793 24.8798H10.2938C10.7792 24.8798 11.1727 24.4863 11.1727 24.0009C11.1727 23.5155 10.7792 23.122 10.2938 23.122Z" fill="#2CBFA3"/>
<path d="M53.6219 23.122H50.7061C50.2205 23.122 49.8271 23.5155 49.8271 24.0009C49.8271 24.4863 50.2205 24.8798 50.7061 24.8798H53.6219C54.1074 24.8798 54.5008 24.4863 54.5008 24.0009C54.5008 23.5155 54.1073 23.122 53.6219 23.122Z" fill="#2CBFA3"/>
<path d="M16.8332 37.6674C16.4901 37.3242 15.9336 37.3242 15.5902 37.6674L13.5284 39.7292C13.1852 40.0724 13.1852 40.629 13.5284 40.9722C13.8717 41.3154 14.4282 41.3154 14.7714 40.9722L16.8332 38.9104C17.1765 38.5672 17.1765 38.0106 16.8332 37.6674Z" fill="#2CBFA3"/>
<path d="M47.471 7.02983C47.1277 6.68659 46.5713 6.68659 46.2279 7.02983L44.1661 9.09162C43.8229 9.43487 43.8229 9.99139 44.1661 10.3346C44.5095 10.6779 45.0659 10.6778 45.4092 10.3346L47.471 8.27284C47.8143 7.92948 47.8143 7.37296 47.471 7.02983Z" fill="#2CBFA3"/>
<path d="M30.5 0C30.0145 0 29.6211 0.393515 29.6211 0.878905V3.79476C29.6211 4.28015 30.0145 4.67366 30.5 4.67366C30.9855 4.67366 31.3789 4.28015 31.3789 3.79476V0.878905C31.3789 0.393515 30.9855 0 30.5 0Z" fill="#2CBFA3"/>
<path d="M47.471 39.7292L45.4092 37.6674C45.0659 37.3242 44.5095 37.3242 44.1661 37.6674C43.8229 38.0106 43.8229 38.5673 44.1661 38.9104L46.2279 40.9722C46.5713 41.3154 47.1277 41.3154 47.471 40.9722C47.8143 40.629 47.8143 40.0724 47.471 39.7292Z" fill="#2CBFA3"/>
<path d="M16.8332 9.09162L14.7714 7.02983C14.4282 6.68659 13.8717 6.68659 13.5284 7.02983C13.1852 7.37307 13.1852 7.9296 13.5284 8.27284L15.5902 10.3346C15.9335 10.6779 16.49 10.6779 16.8332 10.3346C17.1765 9.99127 17.1765 9.43475 16.8332 9.09162Z" fill="#2CBFA3"/>
<path d="M48.0347 21.8478C47.0889 13.7765 40.6908 7.37788 32.6574 6.39866C32.1763 6.33948 31.7372 6.68296 31.6784 7.16471C31.6197 7.64659 31.9627 8.08487 32.4446 8.1437C39.7403 9.03291 45.4333 14.7525 46.2886 22.0524C46.341 22.4997 46.7208 22.829 47.1604 22.829C47.1946 22.829 47.2291 22.827 47.2639 22.823C47.7462 22.7667 48.0912 22.33 48.0347 21.8478Z" fill="#2CBFA3"/>
<path d="M47.2535 25.1798C46.7712 25.1184 46.3321 25.4597 46.2712 25.9414C45.672 30.6743 43.0006 34.8505 38.9419 37.3988C37.1922 38.4974 36.1477 40.3776 36.1477 42.4281V46.0453H24.8528V42.3481C24.8528 40.3624 23.8152 38.4865 22.1449 37.4526C17.4215 34.5287 14.6015 29.4713 14.6014 23.9238C14.6014 15.9138 20.6012 9.13027 28.5574 8.14473C29.0391 8.08508 29.3812 7.6461 29.3216 7.16434C29.2619 6.6827 28.8232 6.33969 28.3412 6.40016C19.5504 7.48918 12.8431 15.0489 12.8433 23.9238C12.8433 26.9862 13.6398 30.0036 15.1469 32.6496C16.6079 35.2149 18.7078 37.3924 21.2193 38.9472C22.3761 39.6632 23.0946 40.9663 23.0946 42.3479V46.1733C22.2009 46.4838 21.5565 47.3325 21.5565 48.3306V49.5836C21.5565 50.1141 21.7398 50.6017 22.0441 50.9899C21.7396 51.3782 21.5565 51.8657 21.5565 52.3963V53.6491C21.5565 54.9093 22.5818 55.9344 23.8418 55.9344H26.605V57.9213C26.605 59.0675 27.5375 60 28.6836 60H32.316C33.4622 60 34.3946 59.0675 34.3946 57.9213V55.9344H37.1579C38.418 55.9344 39.4431 54.9091 39.4431 53.6491V52.3963C39.4431 51.8658 39.2599 51.3782 38.9554 50.9899C39.2599 50.6017 39.4431 50.1142 39.4431 49.5836V48.3306C39.4431 47.3324 38.7988 46.4838 37.905 46.1733V42.428C37.905 40.986 38.6418 39.6625 39.8761 38.8875C44.3825 36.0582 47.3489 31.4199 48.0144 26.1622C48.076 25.6805 47.7351 25.2407 47.2535 25.1798ZM32.637 57.9212C32.637 58.095 32.4902 58.2419 32.3164 58.2419H28.6839C28.5101 58.2419 28.3633 58.0951 28.3633 57.9212V55.9343H32.637V57.9212ZM37.6857 53.649C37.6857 53.9348 37.4442 54.1764 37.1583 54.1764C35.6068 54.1764 25.3062 54.1764 23.8421 54.1764C23.5563 54.1764 23.3148 53.9348 23.3148 53.649V52.3962C23.3148 52.1103 23.5563 51.8688 23.8421 51.8688H37.1583C37.4442 51.8688 37.6857 52.1103 37.6857 52.3962V53.649ZM37.6857 49.5834C37.6857 49.8693 37.4442 50.1108 37.1583 50.1108H23.8421C23.5563 50.1108 23.3148 49.8693 23.3148 49.5834V48.3305C23.3148 48.0447 23.5563 47.8031 23.8421 47.8031H37.1583C37.4442 47.8031 37.6857 48.0447 37.6857 48.3305V49.5834Z" fill="#2CBFA3"/>
</g>
<defs>
<clipPath id="clip0_339_481">
<rect width="60" height="60" fill="white" transform="translate(0.5)"/>
</clipPath>
</defs>
</svg>
