<svg width="57" height="58" viewBox="0 0 57 58" fill="none" xmlns="http://www.w3.org/2000/svg">
<path fill-rule="evenodd" clip-rule="evenodd" d="M10.8188 16.6822L9.37621 13.4375L7.95684 16.629C7.90231 16.7793 7.8065 16.9112 7.68041 17.0095C7.55432 17.1079 7.40306 17.1687 7.24399 17.1849L3.71782 17.5536L6.35571 19.9262C6.46664 20.026 6.54935 20.1533 6.59553 20.2952C6.64171 20.4372 6.64973 20.5888 6.61879 20.7348L5.87911 24.2054L8.94016 22.4359C9.07026 22.3582 9.21875 22.3168 9.37025 22.3158C9.52175 22.3148 9.67076 22.3544 9.80184 22.4304L12.8722 24.2054L12.1376 20.7589C12.1014 20.6097 12.1063 20.4535 12.1517 20.3068C12.1971 20.1602 12.2813 20.0285 12.3954 19.9258L15.0333 17.5532L11.5076 17.1849V17.183C11.3587 17.1678 11.2166 17.1135 11.0955 17.0255C10.9744 16.9375 10.8788 16.8191 10.8183 16.6822H10.8188ZM10.1519 11.0067L12.1694 15.5448L17.112 16.0614C17.2757 16.0782 17.431 16.1421 17.5591 16.2454C17.6872 16.3487 17.7825 16.487 17.8336 16.6434C17.8846 16.7998 17.8892 16.9677 17.8466 17.1267C17.8041 17.2857 17.7164 17.4289 17.5941 17.5389L17.5948 17.5396L13.9001 20.8626L14.9361 25.723C14.9707 25.8863 14.9565 26.0562 14.8952 26.2115C14.834 26.3668 14.7284 26.5006 14.5916 26.5964C14.4549 26.6921 14.2929 26.7455 14.1261 26.7499C13.9592 26.7542 13.7947 26.7094 13.6531 26.621L9.37575 24.1483L5.07497 26.6349C4.93268 26.7174 4.76954 26.7568 4.60531 26.7484C4.44109 26.74 4.28282 26.6841 4.14969 26.5876C4.01656 26.491 3.91429 26.358 3.85525 26.2045C3.79621 26.051 3.78295 25.8837 3.81707 25.7229L4.85301 20.8625L1.15762 17.5396C1.03283 17.4273 0.944058 17.2806 0.90248 17.1179C0.860902 16.9552 0.868377 16.7839 0.923963 16.6254C0.979549 16.467 1.08076 16.3285 1.21486 16.2275C1.34896 16.1264 1.50996 16.0673 1.67758 16.0576L6.58305 15.5448L8.60055 11.0067C8.667 10.8564 8.77568 10.7286 8.91339 10.6389C9.05109 10.5493 9.21188 10.5015 9.37621 10.5015C9.54055 10.5015 9.70134 10.5493 9.83905 10.6389C9.97675 10.7286 10.0854 10.8564 10.1519 11.0067ZM49.0669 16.6822L47.6248 13.4375L46.2059 16.6292C46.1514 16.7795 46.0556 16.9114 45.9295 17.0098C45.8035 17.1081 45.6522 17.1689 45.4932 17.1852L41.9669 17.5538L44.6049 19.9264C44.7158 20.0263 44.7985 20.1536 44.8446 20.2955C44.8908 20.4374 44.8988 20.589 44.8679 20.735L44.1282 24.2056L47.1892 22.4361C47.3193 22.3584 47.4678 22.317 47.6194 22.316C47.7709 22.315 47.9199 22.3546 48.051 22.4306L51.1213 24.2056L50.3868 20.7591C50.3506 20.6099 50.3554 20.4537 50.4008 20.3071C50.4462 20.1604 50.5305 20.0287 50.6446 19.9261L53.2826 17.5535L49.7563 17.1848V17.1829C49.6075 17.1677 49.4653 17.1134 49.3442 17.0254C49.2231 16.9374 49.1275 16.819 49.067 16.6821L49.0669 16.6822ZM48.4 11.0067L50.4175 15.5448L55.3601 16.0614C55.5238 16.0782 55.6791 16.1421 55.8072 16.2454C55.9353 16.3487 56.0306 16.487 56.0817 16.6434C56.1327 16.7998 56.1373 16.9677 56.0948 17.1267C56.0523 17.2857 55.9645 17.4289 55.8422 17.5389V17.5396L52.1482 20.8626L53.1841 25.723C53.2187 25.8863 53.2046 26.0562 53.1433 26.2115C53.0821 26.3668 52.9765 26.5007 52.8398 26.5964C52.703 26.6922 52.5411 26.7455 52.3742 26.7499C52.2073 26.7543 52.0428 26.7094 51.9012 26.621L47.6239 24.1483L43.3231 26.6349C43.1808 26.7173 43.0177 26.7567 42.8535 26.7483C42.6893 26.7399 42.531 26.684 42.3979 26.5875C42.2648 26.4909 42.1625 26.3579 42.1035 26.2044C42.0445 26.051 42.0312 25.8837 42.0653 25.7229L43.1011 20.8625L39.4066 17.5395C39.2817 17.4272 39.1929 17.2805 39.1513 17.1178C39.1097 16.9551 39.1171 16.7838 39.1727 16.6253C39.2283 16.4668 39.3295 16.3284 39.4636 16.2273C39.5977 16.1263 39.7588 16.0672 39.9264 16.0575L44.8319 15.5446L46.8494 11.0066C46.9159 10.8563 47.0245 10.7285 47.1623 10.6389C47.3 10.5492 47.4608 10.5014 47.6251 10.5014C47.7894 10.5014 47.9502 10.5492 48.0879 10.6389C48.2257 10.7285 48.3344 10.8563 48.4008 11.0066L48.4 11.0067ZM44.9208 42.793C43.711 41.5831 42.119 40.8301 40.4162 40.6624C38.7134 40.4947 37.0051 40.9225 35.5824 41.8731C34.1597 42.8237 33.1107 44.2382 32.614 45.8756C32.1173 47.5129 32.2037 49.2718 32.8585 50.8526C33.5132 52.4334 34.6959 53.7383 36.2049 54.5449C37.7139 55.3515 39.4559 55.6099 41.134 55.2761C42.8122 54.9423 44.3227 54.0369 45.4082 52.7143C46.4936 51.3916 47.0869 49.7335 47.0869 48.0225C47.0882 47.0511 46.8975 46.089 46.5258 45.1915C46.154 44.2941 45.6086 43.479 44.9208 42.793ZM35.755 48.5618C35.6722 48.4859 35.6053 48.3945 35.5581 48.2927C35.5108 48.1909 35.4842 48.0807 35.4797 47.9686C35.4752 47.8564 35.493 47.7445 35.532 47.6393C35.571 47.534 35.6304 47.4375 35.7069 47.3554C35.7834 47.2732 35.8753 47.207 35.9775 47.1605C36.0797 47.1141 36.19 47.0883 36.3022 47.0847C36.4144 47.0811 36.5262 47.0997 36.6311 47.1395C36.736 47.1794 36.8321 47.2395 36.9136 47.3166L38.7486 49.0273L42.4391 45.2377C42.517 45.1577 42.6098 45.0938 42.7123 45.0497C42.8148 45.0055 42.9251 44.982 43.0367 44.9804C43.1483 44.9789 43.2591 44.9993 43.3628 45.0406C43.4665 45.0819 43.5611 45.1432 43.6411 45.221C43.7212 45.2988 43.7851 45.3916 43.8292 45.4941C43.8734 45.5967 43.8969 45.7069 43.8985 45.8185C43.9 45.9301 43.8796 46.041 43.8383 46.1447C43.797 46.2484 43.7357 46.3429 43.6579 46.423L39.3999 50.7955C39.2463 50.9606 39.0334 51.0579 38.808 51.066C38.5826 51.0741 38.3633 50.9924 38.1981 50.8388L35.7554 48.5626L35.755 48.5618ZM30.7381 24.772C30.0599 24.0157 29.0641 23.6341 27.908 23.6341C26.7175 23.6341 25.6202 24.0366 24.8586 24.8343C24.1665 25.559 23.7336 26.6293 23.7336 28.0463C23.7336 29.6001 24.2104 30.9952 24.9813 31.9946C25.7045 32.9321 26.6862 33.5123 27.7549 33.5123C28.8235 33.5123 29.8056 32.9323 30.5283 31.9946C31.2991 30.9952 31.7759 29.6001 31.7759 28.0463C31.7759 26.5879 31.3881 25.4969 30.7382 24.772H30.7381ZM27.908 21.9296C29.5442 21.9296 30.9838 22.5038 32.0031 23.6405C32.9289 24.6724 33.4804 26.1461 33.4804 28.0468C33.4804 29.9824 32.8661 31.7465 31.8732 33.0338C30.8327 34.3829 29.3771 35.2173 27.7547 35.2173C26.1324 35.2173 24.6767 34.3829 23.6362 33.0338C22.6431 31.7465 22.029 29.9824 22.029 28.0468C22.029 26.1583 22.6438 24.6922 23.6267 23.6628C24.7265 22.5111 26.2653 21.9301 27.908 21.9301V21.9296ZM32.0197 52.9186H15.8166C15.7047 52.9186 15.5938 52.8965 15.4904 52.8537C15.387 52.8108 15.2931 52.7481 15.2139 52.6689C15.1348 52.5898 15.072 52.4958 15.0292 52.3924C14.9863 52.289 14.9643 52.1782 14.9643 52.0663V45.1926C14.9696 43.1514 15.7829 41.1953 17.2263 39.7519C18.6697 38.3086 20.6258 37.4954 22.667 37.4901H32.841C33.7787 37.4907 34.7083 37.664 35.5832 38.0013C36.3151 38.2827 36.9999 38.6739 37.6139 39.1614C39.2385 38.7815 40.9362 38.8556 42.5214 39.3756C44.1067 39.8956 45.5184 40.8414 46.6023 42.1097C47.6862 43.378 48.4005 44.92 48.667 46.5669C48.9336 48.2138 48.7422 49.9023 48.1137 51.4478C47.4852 52.9932 46.4439 54.3361 45.1036 55.3296C43.7633 56.3231 42.1756 56.9289 40.5142 57.0808C38.8528 57.2327 37.1815 56.9248 35.6833 56.1909C34.1851 55.4569 32.9175 54.3251 32.0192 52.9193L32.0197 52.9186ZM16.6688 51.2139V45.1926C16.6741 43.6035 17.3078 42.0809 18.4316 40.9572C19.5553 39.8335 21.0779 39.1999 22.667 39.1946H32.841C33.8111 39.1907 34.7671 39.4262 35.6243 39.8803C33.6138 40.8865 32.0464 42.6006 31.2235 44.6928C30.4006 46.7851 30.3803 49.1077 31.1666 51.2139H21.9271V48.5082C21.9284 48.3954 21.9074 48.2835 21.8651 48.179C21.8229 48.0744 21.7603 47.9793 21.6811 47.8991C21.6018 47.8189 21.5074 47.7552 21.4033 47.7117C21.2993 47.6683 21.1876 47.6459 21.0749 47.6459C20.9621 47.6459 20.8505 47.6683 20.7464 47.7117C20.6423 47.7552 20.5479 47.8189 20.4687 47.8991C20.3894 47.9793 20.3268 48.0744 20.2846 48.179C20.2424 48.2835 20.2213 48.3954 20.2226 48.5082V51.2139H16.6688ZM29.9429 7.0577L28.4998 3.81301L27.0818 7.00473C27.0274 7.15506 26.9316 7.28697 26.8055 7.38531C26.6794 7.48365 26.5282 7.54443 26.3691 7.56067L22.8424 7.92969L25.4802 10.3023C25.5912 10.4021 25.6739 10.5294 25.72 10.6713C25.7662 10.8133 25.7743 10.9648 25.7433 11.1109L25.0036 14.5814L28.0647 12.8118C28.1948 12.7342 28.3433 12.6927 28.4948 12.6918C28.6463 12.6908 28.7953 12.7304 28.9264 12.8063L31.9967 14.5814L31.2622 11.1349C31.226 10.9857 31.2309 10.8295 31.2762 10.6828C31.3216 10.5361 31.4058 10.4045 31.52 10.3018L34.1582 7.92969L30.6326 7.56067V7.55891C30.4837 7.54366 30.3415 7.48928 30.2205 7.40129C30.0994 7.3133 30.0038 7.19484 29.9433 7.05793L29.9429 7.0577ZM29.2759 1.38242L31.2934 5.92051L36.2361 6.43719C36.3998 6.45395 36.5551 6.51786 36.6831 6.62116C36.8112 6.72446 36.9066 6.86272 36.9576 7.01915C37.0087 7.17558 37.0132 7.34346 36.9707 7.50243C36.9282 7.6614 36.8405 7.80461 36.7182 7.91469L36.7189 7.91539L33.0242 11.2384L34.0601 16.0987C34.0947 16.262 34.0805 16.4319 34.0193 16.5872C33.958 16.7425 33.8525 16.8764 33.7157 16.9721C33.5789 17.0678 33.417 17.1212 33.2501 17.1256C33.0832 17.13 32.9188 17.0852 32.7772 16.9967L28.4998 14.5241L24.199 17.0109C24.0567 17.0933 23.8936 17.1327 23.7294 17.1243C23.5652 17.1159 23.4069 17.0601 23.2738 16.9635C23.1406 16.867 23.0383 16.734 22.9793 16.5805C22.9203 16.427 22.907 16.2597 22.9411 16.0988L23.9771 11.2385L20.2817 7.91539C20.1568 7.80308 20.068 7.65633 20.0264 7.49364C19.9848 7.33094 19.9923 7.15957 20.0479 7.00111C20.1034 6.84265 20.2047 6.70418 20.3388 6.60314C20.473 6.5021 20.634 6.44302 20.8016 6.43332L25.7071 5.92051L27.7246 1.38242C27.7911 1.23212 27.8997 1.10437 28.0375 1.01468C28.1752 0.925002 28.3359 0.877258 28.5003 0.877258C28.6646 0.877258 28.8254 0.925002 28.9631 1.01468C29.1008 1.10437 29.2095 1.23212 29.2759 1.38242Z" fill="#2CBFA3"/>
</svg>
