<svg width="61" height="60" viewBox="0 0 61 60" fill="none" xmlns="http://www.w3.org/2000/svg">
<g clip-path="url(#clip0_339_518)">
<path d="M1.02488 30.0992L5.66949 32.7808C6.13531 33.0498 6.70145 32.9516 7.05266 32.5967L10.5221 34.5998C9.80691 36.8719 11.378 39.2031 13.7407 39.4089C13.22 41.3641 14.3659 43.4082 16.3636 43.9435C16.9009 44.0876 17.4654 44.1126 18.0223 44.0053C17.8092 46.1859 19.5282 48.0674 21.7174 48.0674C22.3911 48.0674 23.035 47.8813 23.5652 47.5712C23.6702 49.5196 25.2856 51.0721 27.2725 51.0721C27.901 51.0721 28.5376 50.9123 29.1199 50.5761C29.9205 50.1139 30.0001 50.0751 30.2036 49.9282L32.274 51.1235C33.1514 51.6301 34.215 51.7616 35.1917 51.49C36.8803 51.0204 37.9418 49.4951 37.8828 47.8288C39.6479 48.7908 41.955 48.2135 42.9581 46.3972C43.3009 45.7766 43.4444 45.095 43.41 44.4287C44.1624 44.7101 44.9742 44.7397 45.7507 44.5067C47.7485 43.9067 48.9131 41.7135 48.1316 39.6339C49.1491 39.4359 50.0795 38.8157 50.6371 37.8496C50.6459 37.8343 50.6543 37.8189 50.6621 37.8032C51.1944 36.7387 51.1738 35.5058 50.709 34.4662L53.9471 32.5967C54.2994 32.9526 54.8657 33.0491 55.3302 32.781L59.9746 30.0995C60.2986 29.9126 60.4998 29.5642 60.4998 29.1902V9.42233C60.4998 8.61608 59.6243 8.10983 58.9251 8.51319L45.7207 16.1368C45.2507 16.4081 45.0582 16.9502 45.1885 17.4267L41.6879 19.4478C41.4048 19.6114 41.2181 19.8786 41.1479 20.1743C39.9699 20.8424 38.5134 20.8377 37.3394 20.1599L33.4627 17.9217C31.7163 16.9134 29.5464 16.9133 27.7999 17.9217L22.4867 20.9892C21.5637 20.9283 20.6956 20.6608 19.8515 20.1745C19.7814 19.8789 19.5946 19.6114 19.3113 19.4477L15.8108 17.4267C15.9409 16.9512 15.7494 16.4085 15.2787 16.1368L11.2729 13.8241C10.8526 13.5813 10.315 13.7255 10.0723 14.1458C9.82965 14.5662 9.97367 15.1037 10.394 15.3464L13.8676 17.3518L6.01637 30.9513L2.25781 28.7814V10.6487L6.76789 13.2526C7.18813 13.4953 7.72578 13.3513 7.96848 12.9309C8.21117 12.5106 8.06715 11.973 7.6468 11.7303L2.07453 8.51307C1.37633 8.11018 0.5 8.61538 0.5 9.42233V29.1902C0.5 29.5642 0.701211 29.9126 1.02488 30.0992ZM12.369 36.6913C11.8316 35.7603 12.1517 34.5657 13.0825 34.0283L15.5971 32.5765C16.5281 32.0389 17.7227 32.3592 18.2601 33.29C18.7975 34.2208 18.4774 35.4156 17.5466 35.953C15.1754 37.322 17.4335 36.0183 15.032 37.4048C14.1011 37.9421 12.9065 37.6222 12.369 36.6913ZM16.8186 42.2457C15.778 41.9669 15.1612 40.899 15.4401 39.8582C15.5749 39.3552 15.8975 38.9348 16.3484 38.6744C17.373 38.0829 16.9798 38.3099 17.8445 37.8108C18.7752 37.2751 19.9681 37.5956 20.5051 38.5256C21.0425 39.4564 20.7223 40.6512 19.7915 41.1886L18.2977 42.051C17.8469 42.3112 17.3214 42.3805 16.8186 42.2457ZM20.0231 45.3357C19.4857 44.4049 19.8058 43.2102 20.7366 42.6728L22.0846 41.8945C22.5363 41.6338 23.0616 41.5652 23.5639 41.6998C24.6046 41.9787 25.2213 43.0465 24.9424 44.0873C24.8115 44.5758 24.4971 45.0037 24.0341 45.271L22.6861 46.0494C21.7551 46.5868 20.5606 46.2665 20.0231 45.3357ZM29.0059 48.6125L28.2411 49.0541C27.3102 49.5913 26.1155 49.2714 25.5781 48.3405C25.0389 47.4067 25.3638 46.2133 26.2917 45.6776L27.0564 45.236C27.9932 44.6951 29.1854 45.0247 29.7194 45.9496C30.2568 46.8804 29.9367 48.075 29.0059 48.6125ZM46.0352 18.9678L49.9159 25.6891C50.1587 26.1095 50.6962 26.2536 51.1164 26.0108C51.5368 25.7681 51.6808 25.2306 51.4381 24.8102L47.132 17.3518L58.7422 10.6487V28.7814L54.9836 30.9513L53.5293 28.4324C53.2866 28.0119 52.7491 27.8679 52.3288 28.1107C51.9084 28.3534 51.7644 28.8909 52.0071 29.3113L53.0359 31.0932L50.1002 32.7881L43.0995 20.6626L46.0352 18.9678ZM20.7605 22.462C19.3952 24.5935 20.5109 27.4022 22.919 28.0474C23.8755 28.3037 24.8746 28.1722 25.732 27.6771L31.2096 24.5155C31.2809 24.4742 31.3695 24.4744 31.4408 24.5155L34.1841 26.0994C34.6043 26.3421 35.142 26.198 35.3847 25.7777C35.6274 25.3574 35.4834 24.8198 35.063 24.5771L32.3198 22.9933C31.7064 22.6391 30.9443 22.6392 30.3309 22.9932L24.8533 26.1548C23.9223 26.6924 22.7278 26.3721 22.1904 25.4413C21.6529 24.5105 21.9731 23.3158 22.9039 22.7783C35.0497 15.766 23.1148 22.6564 28.6791 19.444C29.8835 18.7487 31.3797 18.7486 32.5842 19.444L36.4609 21.6821C38.0865 22.6208 40.0839 22.6746 41.7516 21.8436L47.4631 31.7364L38.7246 26.6912C38.3042 26.4484 37.7666 26.5925 37.524 27.0129C37.2813 27.4332 37.4253 27.9708 37.8457 28.2135L48.2502 34.2205C49.1841 34.7597 49.5702 36.0242 49.1018 36.9936C48.5582 37.907 47.3756 38.2175 46.4521 37.6844C46.3174 37.5947 47.5033 38.2914 40.1785 34.0623C39.7582 33.8195 39.2206 33.9635 38.9779 34.384C38.7352 34.8043 38.8793 35.3419 39.2996 35.5846C39.3618 35.6205 45.575 39.2076 45.6594 39.2564C46.5188 39.7526 46.87 40.9217 46.4217 41.8185C45.9103 42.841 44.7007 43.2048 43.71 42.6329L41.5677 41.3961C41.5672 41.3959 41.5667 41.3955 41.5662 41.3953L37.3501 38.9611C36.9296 38.7181 36.3922 38.8624 36.1495 39.2828C35.9068 39.7031 36.0508 40.2407 36.4712 40.4833L40.6873 42.9176C41.6008 43.4449 41.9293 44.6248 41.4196 45.5475C40.891 46.5044 39.6297 46.809 38.6828 46.2623C38.5396 46.1796 34.5729 43.8893 34.5219 43.86C34.1014 43.6172 33.5639 43.7613 33.3213 44.1817C33.0786 44.602 33.2226 45.1396 33.643 45.3823L35.1577 46.2568C36.098 46.8099 36.3867 47.9872 35.89 48.8867C35.354 49.8571 34.0864 50.1402 33.1532 49.6015L31.3552 48.5634C31.8825 47.4902 31.8833 46.1818 31.2419 45.0708C30.3301 43.4913 28.4234 42.8367 26.7657 43.4396C26.6847 41.2783 24.7268 39.5756 22.4995 39.9163C22.7036 38.1279 21.5933 36.46 19.8734 35.9489C20.4229 34.8675 20.433 33.5379 19.7825 32.4114C18.7604 30.641 16.4886 30.0324 14.7184 31.0544L13.5369 31.7366L19.2453 21.8492C19.7281 22.1067 20.2367 22.312 20.7605 22.462ZM10.8998 32.7882L7.96414 31.0933L14.9648 18.9678L17.9005 20.6627L10.8998 32.7882Z" fill="#2CBFA3"/>
</g>
<defs>
<clipPath id="clip0_339_518">
<rect width="60" height="60" fill="white" transform="translate(0.5)"/>
</clipPath>
</defs>
</svg>
