<svg width="24" height="24" viewBox="0 0 24 24" fill="none" xmlns="http://www.w3.org/2000/svg">
<path fill-rule="evenodd" clip-rule="evenodd" d="M10.512 4.43005C10.4372 4.49418 10.3757 4.57242 10.3312 4.66031C10.2866 4.7482 10.2598 4.84401 10.2523 4.94227C10.2447 5.04052 10.2567 5.1393 10.2873 5.23295C10.318 5.3266 10.3668 5.41328 10.431 5.48805L16.012 12.0001L10.431 18.5121C10.3631 18.5862 10.3108 18.6733 10.2772 18.768C10.2436 18.8628 10.2294 18.9633 10.2355 19.0637C10.2415 19.1641 10.2677 19.2622 10.3124 19.3522C10.3572 19.4423 10.4196 19.5224 10.4959 19.5879C10.5722 19.6533 10.6609 19.7028 10.7567 19.7333C10.8525 19.7637 10.9535 19.7747 11.0536 19.7653C11.1537 19.756 11.2509 19.7267 11.3395 19.679C11.428 19.6314 11.5061 19.5665 11.569 19.4881L17.569 12.4881C17.6855 12.3521 17.7495 12.179 17.7495 12.0001C17.7495 11.8211 17.6855 11.648 17.569 11.5121L11.569 4.51205C11.4395 4.36124 11.2555 4.26799 11.0573 4.2528C10.8591 4.23762 10.663 4.30173 10.512 4.43105" fill="#666666"/>
<path d="M6.25 4.99995C6.24989 4.84658 6.29679 4.69687 6.38439 4.57099C6.47199 4.44511 6.59608 4.3491 6.73993 4.29592C6.88378 4.24274 7.04047 4.23494 7.18889 4.27357C7.33731 4.31219 7.47033 4.39539 7.57 4.51195L13.57 11.5119C13.6865 11.6479 13.7505 11.821 13.7505 11.9999C13.7505 12.1789 13.6865 12.352 13.57 12.4879L7.57 19.4879C7.47033 19.6045 7.33731 19.6877 7.18889 19.7263C7.04047 19.765 6.88378 19.7572 6.73993 19.704C6.59608 19.6508 6.47199 19.5548 6.38439 19.4289C6.29679 19.303 6.24989 19.1533 6.25 18.9999V4.99995Z" fill="#666666"/>
</svg>
